<?xml version="1.0" encoding="UTF-8" standalone="no"?><!DOCTYPE svg PUBLIC "-//W3C//DTD SVG 1.1//EN" "http://www.w3.org/Graphics/SVG/1.1/DTD/svg11.dtd"><svg width="100%" height="100%" viewBox="0 0 600 800" version="1.1" xmlns="http://www.w3.org/2000/svg" xmlns:xlink="http://www.w3.org/1999/xlink" xml:space="preserve" xmlns:serif="http://www.serif.com/" style="fill-rule:evenodd;clip-rule:evenodd;stroke-linecap:round;stroke-linejoin:round;stroke-miterlimit:1.5;"><rect x="97.205" y="78.882" width="404.348" height="673.292" style="fill:#d0d0d0;"/><circle cx="423.602" cy="399.068" r="53.882" style="fill:#8e8e8e;"/><circle cx="176.398" cy="399.068" r="53.882" style="fill:#8e8e8e;"/><circle cx="300" cy="274.845" r="53.882" style="fill:#8e8e8e;"/><circle cx="423.602" cy="274.845" r="53.882" style="fill:#8e8e8e;"/><circle cx="176.398" cy="274.845" r="53.882" style="fill:#8e8e8e;"/><circle cx="300" cy="520.186" r="53.882" style="fill:#8e8e8e;"/><circle cx="423.602" cy="520.186" r="53.882" style="fill:#8e8e8e;"/><circle cx="176.398" cy="520.186" r="53.882" style="fill:#8e8e8e;"/><circle cx="300" cy="150" r="53.882" style="fill:#8e8e8e;"/><circle cx="423.602" cy="150" r="53.882" style="fill:#8e8e8e;"/><circle cx="176.398" cy="150" r="53.882" style="fill:#8e8e8e;"/><circle cx="300" cy="650" r="53.882" style="fill:#8e8e8e;"/><circle cx="423.602" cy="650" r="53.882" style="fill:#8e8e8e;"/><circle cx="176.398" cy="650" r="53.882" style="fill:#8e8e8e;"/><path d="M176.398,96.118l-119.566,0" style="fill:none;stroke:#000;stroke-width:1px;"/><path d="M176.398,703.882l-119.566,-0" style="fill:none;stroke:#000;stroke-width:1px;"/><path d="M57.873,681.382l7.5,22.5l7.5,-22.5l-15,-0Z"/><path d="M57.873,118.618l7.5,-22.5l7.5,22.5l-15,0Z"/><path d="M65.373,685.882l-0,-571.764" style="fill:none;stroke:#000;stroke-width:1px;"/><path d="M122.516,150l-0,-104.193" style="fill:none;stroke:#000;stroke-width:1px;"/><path d="M477.484,150l0,-104.193" style="fill:none;stroke:#000;stroke-width:1px;"/><path d="M145.016,48.401l-22.5,7.5l22.5,7.5l-0,-15Z"/><path d="M454.984,48.401l22.5,7.5l-22.5,7.5l0,-15Z"/><path d="M140.516,55.901l318.968,-0" style="fill:none;stroke:#000;stroke-width:1px;"/><text x="149.994px" y="45.807px" style="font-family:'ArialMT', 'Arial', sans-serif;font-size:30px;">Pills Horizontal Length</text><g transform="matrix(6.12323e-17,-1,1,6.12323e-17,-1142.17,-13.0012)"><text x="-544.046px" y="1192.69px" style="font-family:'ArialMT', 'Arial', sans-serif;font-size:30px;">Pills V<tspan x="-462.352px -445.667px " y="1192.69px 1192.69px ">er</tspan>tical Length</text></g></svg>